<svg id="orientation_sensor" xmlns="http://www.w3.org/2000/svg" viewBox="0 0 512 512"><title>icon</title><path d="M354,32H158a28.08,28.08,0,0,0-28,28V452a28.08,28.08,0,0,0,28,28H354a28.08,28.08,0,0,0,28-28V60A28.08,28.08,0,0,0,354,32ZM243.4,57.2h56a5.6,5.6,0,1,1,0,11.2h-56A5.6,5.6,0,1,1,243.4,57.2Zm-28-2.8a8.4,8.4,0,1,1-8.4,8.4A8.4,8.4,0,0,1,215.4,54.4ZM256,466a22.4,22.4,0,1,1,22.4-22.4A22.4,22.4,0,0,1,256,466Zm112-60.2a2.8,2.8,0,0,1-2.8,2.8H146.8a2.8,2.8,0,0,1-2.8-2.8V89.4a2.8,2.8,0,0,1,2.8-2.8H365.2a2.8,2.8,0,0,1,2.8,2.8V405.8Z" fill="#fff"/><path d="M164,224c-5.14-3.93-8-8.25-8-12.79,0-18,44.77-32.61,100-32.61s100,14.6,100,32.61-44.77,32.61-100,32.61c-22.66,0-43.56-2.46-60.33-6.6" fill="none" stroke="#fff" stroke-miterlimit="10" stroke-width="6"/><circle cx="163.72" cy="223.76" r="6.77" transform="translate(-113.19 237.59) rotate(-56.67)" fill="#fff"/><polygon points="200.68 229.18 183.27 233.56 195.77 246.44 200.68 229.18" fill="#fff"/><path d="M312.78,286.4c-1,5.41-3.25,9.34-6.78,11.38-15.6,9-50.63-22.47-78.24-70.3S190.4,133.58,206,124.57s50.63,22.47,78.24,70.3c11.28,19.53,19.57,38.77,24.38,55.31" fill="none" stroke="#fff" stroke-miterlimit="10" stroke-width="6"/><circle cx="312.69" cy="286.73" r="6.77" transform="translate(-5.98 566.8) rotate(-83.83)" fill="#fff"/><polygon points="299.18 249.87 311.7 262.73 316.59 245.46 299.18 249.87" fill="#fff"/><path d="M286.86,126.85c7.95-4.62,14-5.23,19.14-2.28,15.6,9,5.85,55.08-21.76,102.91s-62.64,79.3-78.24,70.3-5.85-55.08,21.76-102.91a288.12,288.12,0,0,1,35.9-48.55" fill="none" stroke="#fff" stroke-miterlimit="10" stroke-width="6"/><circle cx="287.17" cy="126.72" r="6.77" transform="translate(-22.92 175.4) rotate(-32.73)" fill="#fff"/><polygon points="268.31 154.51 272.7 137.11 255.44 142.01 268.31 154.51" fill="#fff"/><path d="M173.74,363.76l11.53-16.84-9.7-15a29.68,29.68,0,0,1-2.06-3.74,7.48,7.48,0,0,1-.69-3,3.5,3.5,0,0,1,1.32-2.65,4.66,4.66,0,0,1,3.22-1.18,4.44,4.44,0,0,1,3.39,1.28,32.39,32.39,0,0,1,3.36,4.76l7.73,12.52,8.26-12.52,1.74-2.71a14.25,14.25,0,0,1,1.39-1.86,4.47,4.47,0,0,1,1.49-1.11,4.66,4.66,0,0,1,1.92-.37,4.5,4.5,0,0,1,3.22,1.18,3.72,3.72,0,0,1,1.25,2.79q0,2.36-2.71,6.4l-10.16,15.19,10.93,16.84a28.12,28.12,0,0,1,2.14,3.67,6.64,6.64,0,0,1,.67,2.76,4.37,4.37,0,0,1-.6,2.25,4.31,4.31,0,0,1-1.69,1.62,5,5,0,0,1-2.46.6,4.75,4.75,0,0,1-2.5-.62,5.32,5.32,0,0,1-1.65-1.53q-0.63-.91-2.36-3.55l-9.07-14.27L182,369.38q-1.12,1.76-1.6,2.46a9.33,9.33,0,0,1-1.14,1.37,4.92,4.92,0,0,1-1.58,1.05,5.47,5.47,0,0,1-2.14.39,4.44,4.44,0,0,1-3.15-1.16,4.38,4.38,0,0,1-1.25-3.37Q171.18,367.52,173.74,363.76Z" fill="#fff"/><path d="M224.83,374.65a5.47,5.47,0,0,1-3.76-1.41,5,5,0,0,1-1.58-3.94,5.1,5.1,0,0,1,1.51-3.69,5,5,0,0,1,3.73-1.55,5.21,5.21,0,0,1,3.78,1.53,5.43,5.43,0,0,1,0,7.63A5.28,5.28,0,0,1,224.83,374.65Z" fill="#fff"/><path d="M253.16,368.29V351.94l-12.59-19.51a40.88,40.88,0,0,1-2.34-4.11,6.28,6.28,0,0,1-.69-2.57,4.1,4.1,0,0,1,1.39-3.09,4.82,4.82,0,0,1,3.43-1.3,4.18,4.18,0,0,1,3.25,1.21,36.29,36.29,0,0,1,3.32,4.83L258.58,343l9.74-15.64,1.48-2.43a15,15,0,0,1,1.32-1.85,5.25,5.25,0,0,1,1.6-1.32,4.6,4.6,0,0,1,2.14-.46,4.53,4.53,0,0,1,3.29,1.28,4,4,0,0,1,1.32,3,6.21,6.21,0,0,1-.67,2.74,35.58,35.58,0,0,1-2.29,3.8l-12.9,19.79v16.35a6.79,6.79,0,0,1-1.48,4.78,5.28,5.28,0,0,1-7.52,0A6.89,6.89,0,0,1,253.16,368.29Z" fill="#fff"/><path d="M284.24,374.65a5.47,5.47,0,0,1-3.76-1.41,5,5,0,0,1-1.58-3.94,5.1,5.1,0,0,1,1.51-3.69,5,5,0,0,1,3.73-1.55,5.21,5.21,0,0,1,3.78,1.53,5.43,5.43,0,0,1,0,7.63A5.28,5.28,0,0,1,284.24,374.65Z" fill="#fff"/><path d="M299.71,361.75l26.47-31.68H303.43a5.36,5.36,0,0,1-3.6-1.05,3.5,3.5,0,0,1-1.21-2.78,3.74,3.74,0,0,1,1.21-2.9,5.18,5.18,0,0,1,3.6-1.11h29.32q5.7,0,5.7,5.31a7.53,7.53,0,0,1-.95,4,49.54,49.54,0,0,1-3.83,4.89l-24.75,29.46H336.2a5.54,5.54,0,0,1,3.62,1,3.45,3.45,0,0,1,1.2,2.79,3.8,3.8,0,0,1-1.2,3,5.23,5.23,0,0,1-3.62,1.09H302.73a7.52,7.52,0,0,1-5.13-1.53,5.2,5.2,0,0,1-1.72-4.1,4.51,4.51,0,0,1,.28-1.62,5.93,5.93,0,0,1,.76-1.39q0.47-.65,1.32-1.65Z" fill="#fff"/></svg>