<svg id="orientation_drag" xmlns="http://www.w3.org/2000/svg" viewBox="0 0 512 512"><title>icon</title><path d="M472.3,289.41c-5.22-10.26-10.75-20.36-16.22-30.49-9.48-17.59-18.94-35.2-28.56-52.71-8.77-17.44-25.35-25.19-40.8-21.07-8.91,2.37-14.94,9.42-18.09,20-16.29-21-46.77-19.35-51.9,8.69-19.72-22-45.52-16.39-48.4,11.87-0.57-.92-3.72-6.86-4.15-7.66-8.56-15.83-33.95-63.33-42.6-79.11-3.62-6.6-6.82-13.65-11.55-19.37-11.06-13.39-30.29-15.2-44.52-5.06-13.26,9.45-17.46,28-9.48,42.88,13.2,24.61,43.44,80.76,56.73,105.33l25.45,47.06c-10.17-3.7-36-14.63-45.2-17.65-12.34-4.06-23.25-1.19-32.12,8s-11.44,19.84-7.41,32.25c3.07,9.45,9.65,15.78,17.63,21.1,14.53,9.69,45.87,26.81,60.18,36.85,22.17,15.56,43.94,31.72,66.31,47a131.6,131.6,0,0,0,41.69,19.15c12.63,3.21,24.91,3.29,36.71-3.17,26.59-14.58,53.35-28.86,80-43.37a15.84,15.84,0,0,0,5.11-4.56A120.46,120.46,0,0,0,478.32,370C486.69,342.52,485.61,315.56,472.3,289.41Z" fill="#fff"/><line x1="227.37" y1="113.51" x2="275.14" y2="87.19" fill="none" stroke="#fff" stroke-miterlimit="10" stroke-width="32.49"/><polygon points="286.13 136.62 336.4 53.44 239.23 51.49 286.13 136.62" fill="#fff"/><line x1="89.6" y1="189.41" x2="137.37" y2="163.09" fill="none" stroke="#fff" stroke-miterlimit="10" stroke-width="32.49"/><polygon points="125.51 225.11 28.34 223.16 78.61 139.98 125.51 225.11" fill="#fff"/></svg>