<svg id="vr" xmlns="http://www.w3.org/2000/svg" viewBox="0 0 512 512"><title>icon</title><path d="M492,116.59H20a20.06,20.06,0,0,0-20,20V375.41a20.06,20.06,0,0,0,20,20H180.45a20,20,0,0,0,17.32-10l40.91-70.85a20,20,0,0,1,34.64,0l40.91,70.85a20,20,0,0,0,17.32,10H492a20.06,20.06,0,0,0,20-20V136.59A20.06,20.06,0,0,0,492,116.59ZM128,320a64,64,0,1,1,64-64A64,64,0,0,1,128,320Zm256,0a64,64,0,1,1,64-64A64,64,0,0,1,384,320Z" style="fill:#fff"/><path d="M335,261a54,54,0,0,1,54-54" style="fill:none;stroke:#fff;stroke-linecap:round;stroke-miterlimit:10;stroke-width:12px"/><path d="M79,261a54,54,0,0,1,54-54" style="fill:none;stroke:#fff;stroke-linecap:round;stroke-miterlimit:10;stroke-width:12px"/></svg>