<svg id="orientation_sensor" xmlns="http://www.w3.org/2000/svg" viewBox="0 0 512 512"><title>icon</title><path d="M354,32H158a28.08,28.08,0,0,0-28,28V452a28.08,28.08,0,0,0,28,28H354a28.08,28.08,0,0,0,28-28V60A28.08,28.08,0,0,0,354,32ZM243.4,57.2h56a5.6,5.6,0,1,1,0,11.2h-56A5.6,5.6,0,1,1,243.4,57.2Zm-28-2.8a8.4,8.4,0,1,1-8.4,8.4A8.4,8.4,0,0,1,215.4,54.4ZM256,466a22.4,22.4,0,1,1,22.4-22.4A22.4,22.4,0,0,1,256,466Zm112-60.2a2.8,2.8,0,0,1-2.8,2.8H146.8a2.8,2.8,0,0,1-2.8-2.8V89.4a2.8,2.8,0,0,1,2.8-2.8H365.2a2.8,2.8,0,0,1,2.8,2.8V405.8Z" fill="#fff"/><path d="M443.8,178.05c20.42,10.37,32.2,22.56,32.2,35.61C476,251.4,377.5,282,256,282S36,251.4,36,213.66c0-12.46,10.74-24.14,29.49-34.2" fill="none" stroke="#fff" stroke-miterlimit="10" stroke-width="26"/><polygon points="440.59 212.54 400 162 464.06 152.12 440.59 212.54" fill="#fff"/><polygon points="69.3 213.98 109.07 162.8 44.86 153.94 69.3 213.98" fill="#fff"/><line x1="256" y1="329.35" x2="256" y2="166.65" fill="none" stroke="#fff" stroke-miterlimit="10" stroke-width="26"/><polygon points="288.41 319.87 256 376 223.59 319.87 288.41 319.87" fill="#fff"/><polygon points="288.41 176.13 256 120 223.59 176.13 288.41 176.13" fill="#fff"/></svg>