<svg id="eye_left" xmlns="http://www.w3.org/2000/svg" viewBox="0 0 512 512"><title>icon</title><path d="M129,401v63.86h36q4.31,0,6.61,2.09a6.82,6.82,0,0,1,2.3,5.27,6.65,6.65,0,0,1-2.27,5.24q-2.27,2-6.64,2H122.12q-5.81,0-8.35-2.57t-2.54-8.32V401q0-5.39,2.42-8.08a8.16,8.16,0,0,1,6.37-2.69,8.47,8.47,0,0,1,6.49,2.66Q129,395.58,129,401Z" fill="#fff"/><path d="M243.44,405.46h-40V427h36.87q4.07,0,6.08,1.83a6.21,6.21,0,0,1,2,4.82,6.44,6.44,0,0,1-2,4.88q-2,1.89-6.1,1.89H203.4v25h41.42q4.19,0,6.31,1.95a6.68,6.68,0,0,1,2.12,5.18,6.54,6.54,0,0,1-2.12,5.06q-2.13,1.95-6.31,1.95h-48.3q-5.81,0-8.35-2.57t-2.54-8.32v-66a14.78,14.78,0,0,1,1.14-6.25,7.05,7.05,0,0,1,3.56-3.53,15,15,0,0,1,6.19-1.11h46.92q4.25,0,6.31,1.88a6.37,6.37,0,0,1,2.07,4.94,6.44,6.44,0,0,1-2.07,5Q247.69,405.46,243.44,405.46Z" fill="#fff"/><path d="M319.81,405.46h-35V427.9h29.27q4.07,0,6.07,1.83a6.28,6.28,0,0,1,2,4.88,6.14,6.14,0,0,1-2,4.85q-2,1.8-6,1.8H284.8v28.91q0,5.51-2.48,8.17a9,9,0,0,1-12.81,0Q267,475.6,267,470.16V402.64a14.78,14.78,0,0,1,1.14-6.25,7.06,7.06,0,0,1,3.56-3.53,15,15,0,0,1,6.2-1.11h41.9q4.25,0,6.31,1.88a6.37,6.37,0,0,1,2.07,4.94,6.44,6.44,0,0,1-2.07,5Q324.06,405.46,319.81,405.46Z" fill="#fff"/><path d="M398.4,406.41H379v63.74q0,5.51-2.45,8.17a8.24,8.24,0,0,1-6.34,2.66,8.35,8.35,0,0,1-6.43-2.69q-2.48-2.69-2.48-8.14V406.41H341.9q-4.55,0-6.76-2a6.8,6.8,0,0,1-2.21-5.3,6.72,6.72,0,0,1,2.3-5.39q2.3-2,6.67-2h56.5q4.61,0,6.85,2a6.85,6.85,0,0,1,2.24,5.33,6.72,6.72,0,0,1-2.27,5.3Q402.94,406.42,398.4,406.41Z" fill="#fff"/><path d="M468.9,229.09c-59.38-26-119.42-112.49-212.89-112.49S103.08,203.13,43.11,229.09c-5.22,2.26-5.22,12.3,0,14.56,60,26,119.42,112.49,212.89,112.49S409.52,269.61,468.9,243.64C474.1,241.37,474.1,231.37,468.9,229.09ZM256,334.31a97.94,97.94,0,1,1,97.94-97.94A97.94,97.94,0,0,1,256,334.31Z" fill="#fff"/><path d="M256,175.08a61.29,61.29,0,1,0,61.29,61.29A61.29,61.29,0,0,0,256,175.08Zm3.83,18.19a46,46,0,0,0-46,46,5.75,5.75,0,0,1-11.49,0,57.52,57.52,0,0,1,57.46-57.46A5.75,5.75,0,0,1,259.83,193.27Z" fill="#fff"/></svg>