<?xml version="1.0" encoding="utf-8"?>
<!-- Generator: Adobe Illustrator 19.2.1, SVG Export Plug-In . SVG Version: 6.00 Build 0)  -->
<svg version="1.1" id="eye_left" opacity="0.5" xmlns="http://www.w3.org/2000/svg" xmlns:xlink="http://www.w3.org/1999/xlink"
	 x="0px" y="0px" viewBox="0 0 512 512" style="enable-background:new 0 0 512 512;" xml:space="preserve">
<title>icon</title>
<path d="M468.9,248.7c-59.4-26-119.4-112.5-212.9-112.5S103.1,222.8,43.1,248.7c-5.2,2.3-5.2,12.3,0,14.6
	c60,26,119.4,112.5,212.9,112.5s153.5-86.5,212.9-112.5C474.1,261,474.1,251,468.9,248.7z M256,353.9c-54.1,0-97.9-43.8-97.9-97.9
	s43.8-97.9,97.9-97.9s97.9,43.8,97.9,97.9l0,0C353.9,310.1,310.1,353.9,256,353.9z"/>
<path d="M256,194.7c-33.8,0-61.3,27.4-61.3,61.3s27.4,61.3,61.3,61.3s61.3-27.4,61.3-61.3S289.8,194.7,256,194.7L256,194.7z
	 M259.8,212.9c-25.4,0-46,20.6-46,46l0,0c-0.1,3.2-2.8,5.6-6,5.5c-3-0.1-5.4-2.5-5.5-5.5c0-31.7,25.7-57.4,57.5-57.5
	c3.2,0.3,5.5,3,5.3,6.2C264.8,210.4,262.6,212.7,259.8,212.9z"/>
</svg>
