<svg id="eye_right" xmlns="http://www.w3.org/2000/svg" viewBox="0 0 512 512"><title>icon</title><path d="M88.9,447.53H82.57v28.67q0,5.66-2.5,8.34a8.49,8.49,0,0,1-6.51,2.68,8.3,8.3,0,0,1-6.7-2.8q-2.37-2.8-2.37-8.22V407.54q0-5.84,2.62-8.46t8.46-2.62H105a89.58,89.58,0,0,1,10.41.52,26.21,26.21,0,0,1,7.79,2.1,22.59,22.59,0,0,1,7.43,5.05,22.14,22.14,0,0,1,4.9,7.64,25.47,25.47,0,0,1,1.67,9.22q0,10-5.63,15.95t-17.08,8.46a33.07,33.07,0,0,1,9.19,7.55,76.59,76.59,0,0,1,7.82,10.62,78.87,78.87,0,0,1,5.36,10.17q1.92,4.54,1.92,6.24a6.38,6.38,0,0,1-1.13,3.5,7.92,7.92,0,0,1-3.07,2.74,9.7,9.7,0,0,1-4.5,1,8.78,8.78,0,0,1-5.11-1.43,13.75,13.75,0,0,1-3.56-3.62q-1.49-2.19-4-6.45l-7.24-12.05a66.37,66.37,0,0,0-7-10.1,17.22,17.22,0,0,0-6.24-4.75A21.47,21.47,0,0,0,88.9,447.53ZM99.25,410H82.57v24.53H98.76a45.36,45.36,0,0,0,11-1.13,12.85,12.85,0,0,0,6.79-3.84,11,11,0,0,0,2.34-7.46A11.53,11.53,0,0,0,117,415.6a11.41,11.41,0,0,0-5.24-4.23Q108.56,410,99.25,410Z" fill="#fff"/><path d="M155,476.21V405.89q0-5.48,2.5-8.22a8.33,8.33,0,0,1,6.45-2.74,8.62,8.62,0,0,1,6.61,2.71q2.53,2.71,2.53,8.25v70.31q0,5.54-2.53,8.28a8.57,8.57,0,0,1-6.61,2.74,8.31,8.31,0,0,1-6.42-2.77Q155,481.69,155,476.21Z" fill="#fff"/><path d="M274.81,449.42v17.11a18,18,0,0,1-.67,5.45,8.64,8.64,0,0,1-2.47,3.68,23.2,23.2,0,0,1-4.6,3.17,72.26,72.26,0,0,1-15.58,6.39,62.8,62.8,0,0,1-16.31,2,53.17,53.17,0,0,1-18.75-3.17A39.42,39.42,0,0,1,202,474.87a40.58,40.58,0,0,1-9.16-14.61,54.61,54.61,0,0,1-3.2-19.18,56,56,0,0,1,3.1-19.05,39.11,39.11,0,0,1,9.13-14.67,40.06,40.06,0,0,1,14.67-9.22,56.25,56.25,0,0,1,19.6-3.2,48.64,48.64,0,0,1,15.95,2.4,35.11,35.11,0,0,1,11.26,6.06,27,27,0,0,1,6.51,7.73,15.7,15.7,0,0,1,2.19,7.24,7.73,7.73,0,0,1-2.53,5.81,8.47,8.47,0,0,1-6.06,2.41,8.16,8.16,0,0,1-3.74-.91,8.5,8.5,0,0,1-3-2.56,72.1,72.1,0,0,0-5.66-7.91,18.28,18.28,0,0,0-6.24-4.5,23.81,23.81,0,0,0-10-1.83,27.65,27.65,0,0,0-11.2,2.16,23.13,23.13,0,0,0-8.43,6.27,28.26,28.26,0,0,0-5.36,10.08A44.3,44.3,0,0,0,208,440.59q0,15.71,7.21,24.17t20.12,8.46a41,41,0,0,0,11.78-1.64,59.61,59.61,0,0,0,11.17-4.69V452.4h-14q-5.05,0-7.64-1.52T234,445.71a6.35,6.35,0,0,1,2.16-4.93,8.44,8.44,0,0,1,5.87-1.95h20.51a26.18,26.18,0,0,1,6.39.67,7.22,7.22,0,0,1,4.23,3Q274.81,444.79,274.81,449.42Z" fill="#fff"/><path d="M310.24,405.89v25.57h39V405.89q0-5.48,2.46-8.22a8.31,8.31,0,0,1,6.48-2.74,8.61,8.61,0,0,1,6.6,2.71q2.53,2.71,2.53,8.25v70.31q0,5.54-2.56,8.28a8.59,8.59,0,0,1-6.57,2.74,8.24,8.24,0,0,1-6.51-2.77q-2.44-2.77-2.43-8.25v-30h-39v30q0,5.54-2.56,8.28a8.59,8.59,0,0,1-6.57,2.74,8.24,8.24,0,0,1-6.51-2.77q-2.44-2.77-2.44-8.25V405.89q0-5.48,2.41-8.22a8.26,8.26,0,0,1,6.54-2.74,8.61,8.61,0,0,1,6.6,2.71Q310.24,400.36,310.24,405.89Z" fill="#fff"/><path d="M444.72,411.37H425v64.83q0,5.6-2.5,8.31a8.38,8.38,0,0,1-6.45,2.71,8.49,8.49,0,0,1-6.54-2.74q-2.53-2.74-2.53-8.28V411.37H387.25q-4.63,0-6.88-2a6.92,6.92,0,0,1-2.25-5.39,6.84,6.84,0,0,1,2.34-5.48q2.34-2,6.79-2h57.47q4.69,0,7,2.07a7,7,0,0,1,2.28,5.42,6.83,6.83,0,0,1-2.31,5.39Q449.34,411.37,444.72,411.37Z" fill="#fff"/><path d="M472.23,231c-60.4-26.41-121.46-114.42-216.53-114.42S100.15,204.61,39.16,231c-5.31,2.3-5.31,12.51,0,14.81,61,26.41,121.46,114.42,216.53,114.42s156.14-88,216.53-114.42C477.52,243.5,477.52,233.33,472.23,231ZM255.7,338a99.62,99.62,0,1,1,99.62-99.62A99.62,99.62,0,0,1,255.7,338Z" fill="#fff"/><path d="M255.69,176.08A62.34,62.34,0,1,0,318,238.42,62.34,62.34,0,0,0,255.69,176.08Zm3.9,18.51a46.81,46.81,0,0,0-46.75,46.75,5.84,5.84,0,1,1-11.69,0,58.51,58.51,0,0,1,58.44-58.44A5.84,5.84,0,0,1,259.59,194.59Z" fill="#fff"/></svg>