<svg id="panorama" xmlns="http://www.w3.org/2000/svg" viewBox="0 0 512 512"><title>icon</title><path d="M154.84,401.83a14.83,14.83,0,0,0,9.65-3.29q4-3.29,4-9.44a11.27,11.27,0,0,0-3.23-8.07,11.47,11.47,0,0,0-8.71-3.38,15.58,15.58,0,0,0-6.12,1,9.85,9.85,0,0,0-3.8,2.74,20.63,20.63,0,0,0-2.65,4.38q-1.25,2.68-2.28,5.05a4.28,4.28,0,0,1-2.19,2,8.63,8.63,0,0,1-3.65.73,6.31,6.31,0,0,1-4.47-2,7,7,0,0,1-2-5.27,13.92,13.92,0,0,1,1.92-6.67,24.31,24.31,0,0,1,5.6-6.67,28.14,28.14,0,0,1,9.16-5.08A36.86,36.86,0,0,1,158.31,366a34.13,34.13,0,0,1,10.77,1.61,25.2,25.2,0,0,1,8.46,4.66,20.13,20.13,0,0,1,5.42,7.06,20.65,20.65,0,0,1,1.83,8.64,19.71,19.71,0,0,1-2.65,10.44,35.19,35.19,0,0,1-7.58,8.49,33.56,33.56,0,0,1,8,5.84,21.84,21.84,0,0,1,6.54,15.89,26.88,26.88,0,0,1-2.22,10.71,27.32,27.32,0,0,1-6.54,9.22,31.21,31.21,0,0,1-10.26,6.33A36.28,36.28,0,0,1,157,457.22a31.42,31.42,0,0,1-13.09-2.62,29.93,29.93,0,0,1-15.19-14.67,17.63,17.63,0,0,1-1.92-6.94,7.48,7.48,0,0,1,2.28-5.69,8,8,0,0,1,5.69-2.16,6.05,6.05,0,0,1,3.29,1,4.75,4.75,0,0,1,2.07,2.4q3.17,8.46,6.79,12.57t10.2,4.11a15.32,15.32,0,0,0,7.27-1.86,15.17,15.17,0,0,0,5.78-5.51,15.64,15.64,0,0,0,2.28-8.46q0-7.12-3.9-11.17t-10.84-4q-1.22,0-3.77.24t-3.29.24a7.37,7.37,0,0,1-5.17-1.67,6,6,0,0,1-1.83-4.66,5.8,5.8,0,0,1,2.19-4.72q2.19-1.8,6.51-1.8h2.5Z" fill="#fff"/><path d="M217.36,407.43a27.73,27.73,0,0,1,9-7.31,24.54,24.54,0,0,1,10.9-2.37,26.19,26.19,0,0,1,10.68,2.16,25.73,25.73,0,0,1,8.58,6.15,28.08,28.08,0,0,1,5.69,9.41,32.3,32.3,0,0,1,2,11.32,31.31,31.31,0,0,1-3.93,15.58,28,28,0,0,1-11,10.93,32.09,32.09,0,0,1-15.92,3.93,30.89,30.89,0,0,1-17.65-5q-7.43-5-11.35-14.76t-3.93-23.89A81.43,81.43,0,0,1,202.87,393a43.26,43.26,0,0,1,6.82-15,29,29,0,0,1,10.78-9,32.9,32.9,0,0,1,14.43-3,29.69,29.69,0,0,1,13.73,3,23.16,23.16,0,0,1,8.95,7.55,15.64,15.64,0,0,1,3,8.64,6.53,6.53,0,0,1-1.89,4.54,6.27,6.27,0,0,1-4.81,2,7.84,7.84,0,0,1-4.75-1.61,9.32,9.32,0,0,1-3.23-4.47,12.76,12.76,0,0,0-4.44-5.87,11.66,11.66,0,0,0-7.06-2.22A12.68,12.68,0,0,0,228,379.4a16.74,16.74,0,0,0-5.39,5Q218.15,390.87,217.36,407.43Zm16.44,37.8a12.48,12.48,0,0,0,10.17-5q4-5,4-13.18a22.11,22.11,0,0,0-1.89-9.53,14.21,14.21,0,0,0-5.17-6.09,13.18,13.18,0,0,0-7.24-2.1,14.1,14.1,0,0,0-7.21,2,14.87,14.87,0,0,0-5.54,5.81,18.18,18.18,0,0,0-2.1,8.92q0,8.22,4.26,13.7A13.05,13.05,0,0,0,233.79,445.23Z" fill="#fff"/><path d="M337,411.93a104.49,104.49,0,0,1-1.22,17.17,40,40,0,0,1-4.5,13,29.92,29.92,0,0,1-10.71,11.08,29.1,29.1,0,0,1-31.2-1.34,31.86,31.86,0,0,1-11-14.49,53.85,53.85,0,0,1-2.77-11.17A92.85,92.85,0,0,1,274.7,413a127,127,0,0,1,1-16.56,54.64,54.64,0,0,1,3-12.66,27.24,27.24,0,0,1,26.79-18,30.49,30.49,0,0,1,11.38,2,26,26,0,0,1,9,6,34.14,34.14,0,0,1,6.54,9.71Q337,393.55,337,411.93Zm-16.68-1.22A101.43,101.43,0,0,0,319,392.48q-1.34-7.09-4.5-10.71a11,11,0,0,0-8.77-3.62q-8,0-11.17,8.1t-3.13,25A107.23,107.23,0,0,0,292.78,430q1.34,7.31,4.5,11a11.76,11.76,0,0,0,17.35-.15q3.16-3.9,4.44-11.14A113.45,113.45,0,0,0,320.36,410.72Z" fill="#fff"/><path d="M348.18,384.42a19.07,19.07,0,0,1,1.58-7.67,19.38,19.38,0,0,1,4.23-6.24,19.75,19.75,0,0,1,6.18-4.08,19.38,19.38,0,1,1-6.27,31.63A18.49,18.49,0,0,1,348.18,384.42Zm10.11,0a8.67,8.67,0,0,0,2.8,6.51,9.2,9.2,0,0,0,6.57,2.68,9,9,0,0,0,6.48-2.65,8.79,8.79,0,0,0,2.71-6.54,9.22,9.22,0,0,0-4.66-8.13A9.35,9.35,0,0,0,358.28,384.42Z" fill="#fff"/><path d="M128,127C63.5,114.21,20,96.59,20,96.59a20.06,20.06,0,0,0-20,20V355.41a20.06,20.06,0,0,0,20,20S63.55,358,128,345.22V127Z" fill="#fff"/><path d="M492,96.59s-43.5,17.34-108,30.1V345.08c64.54,12.78,108,30.32,108,30.32a20.06,20.06,0,0,0,20-20V116.59A20.06,20.06,0,0,0,492,96.59Z" fill="#fff"/><path d="M368,129.69A662.65,662.65,0,0,1,256,140a643.6,643.6,0,0,1-112-10V342.23A655.32,655.32,0,0,1,256.5,332,650.68,650.68,0,0,1,368,342.1V129.69Z" fill="#fff"/></svg>